<?xml version="1.0" encoding="utf-8"?>
<svg class="logo" width="362" height="80" viewBox="0 0 362 80" fill="none" xmlns="http://www.w3.org/2000/svg">
  <path d="M212.715 8.46704V8.42404C212.692 7.39036 212.878 6.3627 213.263 5.40287C213.647 4.44303 214.221 3.57085 214.952 2.83876C215.682 2.10667 216.552 1.52981 217.511 1.14285C218.47 0.755891 219.497 0.566829 220.531 0.587041C221.629 0.546045 222.724 0.734677 223.745 1.14087C224.766 1.54707 225.692 2.1619 226.462 2.94604L224.752 4.91604C224.204 4.33734 223.547 3.87297 222.818 3.54977C222.09 3.22657 221.305 3.05094 220.508 3.03304C219.825 3.04396 219.151 3.19237 218.526 3.46942C217.901 3.74647 217.339 4.14648 216.872 4.64559C216.406 5.1447 216.045 5.73268 215.81 6.37446C215.576 7.01624 215.473 7.69867 215.508 8.38104V8.42404C215.472 9.10865 215.574 9.79341 215.808 10.4378C216.042 11.0823 216.403 11.6733 216.869 12.1759C217.335 12.6785 217.897 13.0826 218.522 13.3641C219.147 13.6456 219.822 13.799 220.508 13.815C221.33 13.8057 222.142 13.6257 222.891 13.2864C223.64 12.9471 224.311 12.456 224.861 11.844L226.571 13.576C225.809 14.4516 224.862 15.1467 223.799 15.6109C222.735 16.0751 221.582 16.2969 220.422 16.26C219.399 16.2717 218.385 16.0775 217.439 15.6889C216.493 15.3003 215.635 14.7253 214.916 13.9981C214.196 13.271 213.631 12.4065 213.253 11.4563C212.875 10.5061 212.692 9.48947 212.715 8.46704Z" style="fill: rgb(0, 72, 83);"/>
  <path d="M228.664 8.46706V8.42406C228.681 6.33752 229.521 4.34193 231 2.87051C232.48 1.3991 234.48 0.570633 236.566 0.564971C238.653 0.559309 240.658 1.37691 242.145 2.84027C243.632 4.30363 244.483 6.29464 244.511 8.38106V8.42406C244.494 10.5106 243.655 12.5062 242.175 13.9776C240.696 15.449 238.695 16.2775 236.609 16.2832C234.522 16.2888 232.518 15.4712 231.03 14.0079C229.543 12.5445 228.692 10.5535 228.664 8.46706ZM241.719 8.46706V8.42406C241.746 7.72907 241.632 7.03583 241.386 6.38547C241.139 5.73511 240.765 5.1409 240.284 4.63809C239.804 4.13527 239.227 3.73411 238.588 3.4584C237.95 3.18269 237.263 3.03805 236.567 3.03306C235.876 3.03373 235.192 3.17432 234.557 3.44635C233.921 3.71839 233.347 4.11623 232.87 4.61593C232.392 5.11562 232.021 5.70682 231.778 6.3539C231.535 7.00098 231.425 7.69055 231.456 8.38106V8.42406C231.43 9.11919 231.543 9.81254 231.79 10.463C232.036 11.1134 232.411 11.7076 232.892 12.2105C233.373 12.7133 233.95 13.1144 234.588 13.39C235.227 13.6657 235.914 13.8102 236.61 13.8151C237.301 13.8147 237.986 13.6743 238.621 13.4024C239.257 13.1304 239.831 12.7326 240.309 12.2329C240.786 11.7332 241.158 11.1419 241.401 10.4947C241.644 9.84748 241.754 9.15774 241.723 8.46706H241.719Z" style="fill: rgb(0, 72, 83);"/>
  <path d="M248.213 0.846191H250.876V13.5762H258.843V16.0012H248.213V0.846191Z" style="fill: rgb(0, 72, 83);"/>
  <path d="M262.131 0.846191H264.795V13.5762H272.762V16.0012H262.132L262.131 0.846191Z" style="fill: rgb(0, 72, 83);"/>
  <path d="M276.05 0.846191H287.286V3.22719H278.715V7.16819H286.315V9.55019H278.715V13.6192H287.396V16.0002H276.05V0.846191Z" style="fill: rgb(0, 72, 83);"/>
  <path d="M290.38 8.46737V8.42437C290.365 7.39263 290.556 6.36821 290.943 5.41166C291.33 4.45511 291.905 3.58584 292.633 2.85522C293.362 2.12461 294.23 1.54749 295.185 1.15796C296.141 0.768437 297.165 0.574416 298.196 0.587368C300.332 0.485852 302.422 1.22378 304.02 2.64337L302.331 4.65837C301.188 3.57612 299.661 2.99203 298.087 3.03437C297.413 3.06162 296.751 3.22171 296.139 3.50546C295.526 3.78921 294.976 4.19104 294.519 4.68789C294.063 5.18475 293.709 5.76686 293.478 6.40084C293.246 7.03482 293.143 7.70821 293.172 8.38237V8.42537C293.124 9.12678 293.221 9.83066 293.46 10.4921C293.698 11.1536 294.072 11.7582 294.556 12.2674C295.041 12.7765 295.627 13.1791 296.276 13.4494C296.925 13.7197 297.623 13.8518 298.326 13.8374C299.637 13.8525 300.918 13.4509 301.985 12.6904V9.85837H298.11V7.53637H304.562V13.9024C302.807 15.4225 300.563 16.2599 298.24 16.2614C297.201 16.3093 296.163 16.141 295.192 15.7671C294.221 15.3933 293.338 14.822 292.6 14.0895C291.861 13.3569 291.282 12.479 290.9 11.5112C290.518 10.5435 290.341 9.50704 290.38 8.46737Z" style="fill: rgb(0, 72, 83);"/>
  <path d="M308.583 0.846191H319.819V3.22719H311.246V7.16819H318.846V9.55019H311.246V13.6192H319.928V16.0002H308.583V0.846191Z" style="fill: rgb(0, 72, 83);"/>
  <path d="M329.903 8.46706V8.42406C329.92 6.33752 330.76 4.34193 332.239 2.87051C333.719 1.3991 335.719 0.570633 337.806 0.564971C339.892 0.559309 341.897 1.37691 343.384 2.84027C344.872 4.30363 345.722 6.29464 345.75 8.38106V8.42406C345.733 10.5106 344.894 12.5062 343.414 13.9776C341.935 15.449 339.935 16.2775 337.848 16.2832C335.761 16.2888 333.757 15.4712 332.269 14.0079C330.782 12.5445 329.932 10.5535 329.903 8.46706ZM342.958 8.46706V8.42406C342.985 7.72907 342.872 7.03583 342.625 6.38547C342.379 5.73511 342.004 5.1409 341.523 4.63809C341.043 4.13527 340.466 3.73411 339.828 3.4584C339.189 3.18269 338.502 3.03805 337.806 3.03306C337.115 3.03373 336.431 3.17432 335.796 3.44635C335.16 3.71839 334.587 4.11623 334.109 4.61593C333.632 5.11562 333.26 5.70682 333.017 6.3539C332.774 7.00098 332.665 7.69055 332.695 8.38106V8.42406C332.669 9.11914 332.782 9.81247 333.029 10.4629C333.275 11.1133 333.65 11.7076 334.131 12.2104C334.611 12.7132 335.188 13.1144 335.827 13.39C336.465 13.6657 337.153 13.8102 337.848 13.8151C338.54 13.8144 339.224 13.6738 339.859 13.4018C340.494 13.1298 341.068 12.7319 341.546 12.2322C342.024 11.7326 342.395 11.1414 342.638 10.4943C342.881 9.84722 342.991 9.15763 342.96 8.46706H342.958Z" style="fill: rgb(0, 72, 83);"/>
  <path d="M349.471 0.846191H360.749V3.27119H352.132V7.40619H359.775V9.83119H352.132V16.0012H349.468L349.471 0.846191Z" style="fill: rgb(0, 72, 83);"/>
  <path d="M219.105 53.1772H215.938V78.5782H219.105V53.1772Z" style="fill: rgb(0, 72, 83);"/>
  <path d="M242.532 53.1782H233.662V78.5782H242.532C250.347 78.5782 256.02 73.2372 256.02 65.8782V65.8072C256.02 58.4892 250.35 53.1782 242.532 53.1782ZM242.532 75.6262H236.832V56.1262H242.532C248.545 56.1262 252.745 60.1342 252.745 65.8742V65.9462C252.75 71.6462 248.55 75.6262 242.532 75.6262Z" style="fill: rgb(0, 72, 83);"/>
  <path d="M279.019 52.998H276.151L264.684 78.341L264.576 78.578H267.847L270.82 71.954H284.242L287.178 78.578H290.591L279.061 53.098L279.019 52.998ZM282.982 69.0741H272.082L277.549 56.874L282.982 69.0741Z" style="fill: rgb(0, 72, 83);"/>
  <path d="M319.595 64.3132H305.468V53.1782H302.301V78.5782H305.468V67.3002H319.596V78.5792H322.762V53.1792H319.596L319.595 64.3132Z" style="fill: rgb(0, 72, 83);"/>
  <path d="M348.588 52.7441C346.868 52.735 345.163 53.0694 343.574 53.7278C341.985 54.3862 340.543 55.3553 339.333 56.5783C338.124 57.8012 337.17 59.2535 336.53 60.8497C335.889 62.446 335.573 64.1542 335.601 65.8741V65.9461C335.552 67.6622 335.852 69.3704 336.482 70.9674C337.112 72.5644 338.059 74.0171 339.266 75.2377C340.473 76.4583 341.916 77.4215 343.506 78.069C345.096 78.7166 346.8 79.035 348.517 79.0051C350.237 79.0143 351.942 78.6798 353.531 78.0213C355.12 77.3629 356.562 76.3937 357.772 75.1706C358.981 73.9475 359.934 72.4952 360.575 70.8988C361.216 69.3024 361.532 67.5941 361.504 65.8741V65.8031C361.553 64.087 361.253 62.3789 360.623 60.7818C359.993 59.1848 359.046 57.7321 357.839 56.5115C356.631 55.2909 355.189 54.3277 353.599 53.6802C352.009 53.0327 350.304 52.7142 348.588 52.7441ZM348.588 76.0531C347.278 76.0359 345.984 75.7574 344.783 75.2339C343.582 74.7104 342.497 73.9525 341.593 73.0045C340.688 72.0565 339.982 70.9376 339.516 69.7132C339.049 68.4888 338.832 67.1836 338.876 65.8741V65.8031C338.876 60.0411 343.02 55.6961 348.517 55.6961C349.827 55.7133 351.12 55.9918 352.321 56.5152C353.522 57.0387 354.607 57.7965 355.511 58.7444C356.416 59.6923 357.122 60.8111 357.589 62.0354C358.055 63.2596 358.273 64.5647 358.229 65.8741V65.9461C358.229 71.7121 354.085 76.0571 348.588 76.0571V76.0531Z" style="fill: rgb(0, 72, 83);"/>
  <path d="M218.998 44.8503L211.998 25.1133H216.506L220.928 38.6073L225.771 25.1133H228.963L233.441 38.6913L238.172 25.1133H242.399L235.346 44.8503H231.791L227.256 31.7203L222.581 44.8503H218.998Z" style="fill: rgb(0, 72, 83);"/>
  <path d="M246.262 44.8503V25.1133H259.979V28.5023H250.433V33.1193H259.307V36.5353H250.433V41.4623H259.979V44.8493L246.262 44.8503Z" style="fill: rgb(0, 72, 83);"/>
  <path d="M271.683 45.1581C270.175 45.1708 268.672 44.9725 267.219 44.5691C265.963 44.2329 264.774 43.684 263.704 42.9461L264.993 39.5311C265.953 40.1701 266.999 40.6695 268.1 41.0141C269.269 41.3766 270.488 41.556 271.712 41.5461C272.709 41.6299 273.708 41.4154 274.583 40.9301C274.845 40.7615 275.061 40.5296 275.21 40.2558C275.36 39.9819 275.438 39.675 275.437 39.3631C275.452 39.112 275.408 38.8608 275.308 38.6298C275.209 38.3988 275.056 38.1944 274.863 38.0331C274.232 37.6228 273.522 37.3502 272.778 37.2331L269.478 36.5601C265.878 35.8141 264.078 33.9851 264.078 31.0731C264.055 29.8975 264.408 28.7453 265.085 27.7841C265.809 26.8 266.794 26.0379 267.928 25.5841C269.293 25.0337 270.756 24.767 272.228 24.8001C273.554 24.788 274.872 24.9906 276.133 25.4001C277.238 25.7461 278.261 26.3125 279.141 27.0651L277.854 30.2561C277.084 29.6567 276.218 29.1928 275.292 28.8841C274.275 28.5555 273.212 28.3951 272.143 28.4091C271.172 28.3493 270.205 28.5727 269.358 29.0521C269.057 29.2359 268.809 29.4956 268.64 29.8051C268.471 30.1147 268.385 30.4633 268.393 30.8161C268.384 31.072 268.432 31.3267 268.533 31.5618C268.635 31.7968 268.788 32.0064 268.98 32.1751C269.593 32.6139 270.304 32.897 271.051 33.0001L274.299 33.6441C277.938 34.3734 279.758 36.1651 279.757 39.0191C279.781 40.171 279.433 41.3 278.764 42.2381C278.045 43.1957 277.076 43.9368 275.964 44.3801C274.604 44.9262 273.148 45.1908 271.683 45.1581Z" style="fill: rgb(0, 72, 83);"/>
  <path d="M288.702 44.8503V28.6683H282.431V25.1133H299.339V28.6683H293.068V44.8503H288.702Z" style="fill: rgb(0, 72, 83);"/>
  <path d="M303.426 44.8503V25.1133H317.143V28.5023H307.597V33.1193H316.471V36.5353H307.597V41.4623H317.143V44.8493L303.426 44.8503Z" style="fill: rgb(0, 72, 83);"/>
  <path d="M321.957 44.8505V25.1135H330.916C332.764 24.9999 334.59 25.5626 336.054 26.6965C336.67 27.2471 337.155 27.9293 337.472 28.6924C337.789 29.4556 337.931 30.2803 337.886 31.1055C337.929 32.3636 337.561 33.6015 336.837 34.6315C336.101 35.6094 335.063 36.3178 333.884 36.6475C334.409 36.8563 334.886 37.1671 335.29 37.5619C335.694 37.9567 336.015 38.4277 336.235 38.9475L339.174 44.8545H334.36L331.308 38.4995C331.213 38.257 331.07 38.0365 330.887 37.8511C330.704 37.6658 330.485 37.5196 330.244 37.4215C329.724 37.2357 329.174 37.1459 328.621 37.1565H326.321V44.8565L321.957 44.8505ZM326.324 34.0175H330.16C331.083 34.0791 331.999 33.8272 332.76 33.3025C333.062 33.0552 333.301 32.74 333.457 32.3826C333.613 32.0252 333.683 31.6359 333.66 31.2465C333.687 30.8563 333.619 30.4653 333.463 30.1069C333.306 29.7486 333.065 29.4335 332.76 29.1885C331.991 28.6825 331.078 28.4416 330.16 28.5025H326.324V34.0175Z" style="fill: rgb(0, 72, 83);"/>
  <path d="M343.008 44.8503V25.1133H346.256L356.221 37.7673V25.1133H360.28V44.8503H357.033L347.068 32.1693V44.8503H343.008Z" style="fill: rgb(0, 72, 83);"/>
  <path d="M104.783 34.4403L112.932 63.3063L145.541 55.0223L159.77 0.549316H137.49L128.118 41.4593L116.048 0.549316H94.0666L83.0836 41.2053L73.1316 0.549316H50.3936L69.5775 74.3183L95.7856 67.6603L104.783 34.4403Z" style="fill: rgb(0, 72, 83);"/>
  <path d="M146.456 78.6641H69.79L144.608 59.6641L141.932 69.8641L146.456 78.6641Z" fill="#00BB31"/>
  <path d="M193.03 20.2293V0.549316H164.693L159.457 20.2293H165.169L165.147 58.9823H159.6V78.6633H193.03V58.9823H187.475L187.497 20.2293H193.03Z" style="fill: rgb(0, 72, 83);"/>
  <path d="M53.832 57.7073C49.5332 58.7166 45.1672 59.4144 40.768 59.7953C30.175 59.7903 22.492 50.4953 22.498 39.7463C22.505 29.2763 26.448 24.3373 31.283 21.7673C33.544 20.5673 34.959 20.3243 38.132 20.1403C44.095 19.7923 50.365 20.1473 50.365 20.1473L45.249 0.500281C43.2417 0.286689 41.2246 0.178539 39.206 0.176279C27.865 0.169279 18.106 3.91028 10.983 10.9923C3.80401 18.1293 0.00700769 27.9843 7.6913e-06 39.4923C-0.0129923 62.8483 16.455 79.8103 39.16 79.8233C47.46 79.8283 51.1 78.6173 61.413 76.2233L64.869 75.3983L53.832 57.7073Z" style="fill: rgb(0, 72, 83);"/>
</svg>