<?xml version="1.0" standalone="no"?>
<!DOCTYPE svg PUBLIC "-//W3C//DTD SVG 20010904//EN"
 "http://www.w3.org/TR/2001/REC-SVG-20010904/DTD/svg10.dtd">
<svg version="1.0" xmlns="http://www.w3.org/2000/svg"
 width="545.000000pt" height="545.000000pt" viewBox="0 0 545.000000 545.000000"
 preserveAspectRatio="xMidYMid meet">
<metadata>
Created by potrace 1.11, written by Peter Selinger 2001-2013
</metadata>
<g transform="translate(0.000000,545.000000) scale(0.100000,-0.100000)"
fill="#000000" stroke="none">
<path d="M1713 4443 c-22 -37 -79 -135 -128 -218 -48 -82 -137 -233 -196 -335
-59 -102 -113 -190 -119 -197 -5 -7 -10 -15 -10 -18 0 -3 -20 -38 -44 -78 -24
-39 -133 -225 -243 -412 -110 -187 -252 -429 -316 -537 -64 -108 -125 -211
-134 -227 -10 -17 -73 -125 -140 -239 -68 -115 -123 -212 -123 -215 0 -3 1125
-6 2500 -6 1375 -1 2500 3 2499 7 0 4 -21 24 -47 46 -26 21 -65 55 -87 75 -22
20 -76 67 -120 106 -44 38 -103 90 -130 115 -28 25 -82 72 -120 105 -98 85
-239 209 -245 215 -3 3 -59 52 -125 109 -66 58 -124 110 -130 115 -5 6 -41 38
-80 71 -38 33 -72 62 -75 65 -3 3 -61 55 -130 115 -159 139 -151 132 -504 470
-98 94 -204 195 -236 225 -32 30 -145 138 -250 240 -278 268 -314 300 -322
298 -4 -2 -86 -81 -182 -176 -97 -96 -179 -171 -184 -168 -4 2 -124 119 -266
258 -142 139 -261 254 -266 256 -4 2 -25 -28 -47 -65z m168 -163 c36 -36 141
-139 234 -230 142 -140 316 -319 618 -634 179 -187 219 -226 231 -226 7 0 22
10 34 23 l21 22 -97 102 c-53 56 -178 186 -278 290 -269 280 -284 296 -284
303 0 4 68 73 152 154 l152 147 45 -45 c25 -24 73 -70 106 -101 33 -31 143
-137 245 -235 102 -97 232 -222 289 -276 266 -254 356 -343 351 -346 -41 -34
-880 -611 -886 -609 -5 0 -8 55 -6 121 2 109 1 120 -15 121 -37 1 -371 8 -425
9 l-56 0 -105 106 -105 107 0 -134 c0 -74 -1 -216 -1 -316 l-1 -183 -35 0 -35
0 2 88 c1 75 -3 94 -24 137 -30 58 -50 79 -97 98 -21 9 -43 31 -61 62 l-28 47
-22 -45 c-15 -30 -33 -50 -53 -58 -17 -7 -45 -25 -62 -40 l-30 -27 0 174 0
174 -42 0 c-24 0 -42 3 -42 8 4 24 -3 42 -16 42 -16 0 -17 6 -17 78 0 23 -4
42 -9 42 -5 0 -8 -27 -6 -60 3 -57 2 -60 -21 -60 -18 0 -23 -5 -20 -22 3 -20
-2 -23 -39 -26 -24 -2 -43 -8 -44 -15 -1 -7 -1 -60 -1 -118 l0 -106 -166 -1
c-99 -1 -176 -6 -193 -12 -54 -23 -57 -45 -57 -395 -1 -176 -1 -332 -1 -346
l-1 -26 -290 0 c-160 -1 -290 2 -290 6 0 4 6 15 14 26 7 11 24 40 38 65 14 25
99 169 189 320 89 151 177 300 194 330 18 30 114 195 215 365 101 171 197 335
215 365 109 189 414 705 446 757 22 34 39 66 39 71 0 4 5 13 12 20 14 14 23 7
119 -88z m2250 -1425 c194 -170 398 -350 454 -399 55 -49 116 -103 135 -120
38 -33 162 -143 219 -192 18 -16 51 -45 74 -65 l40 -37 -1128 2 -1128 1 1 85
c0 47 2 149 3 228 l2 142 161 112 c343 239 644 449 720 503 44 30 83 54 87 53
4 -2 166 -142 360 -313z"/>
<path d="M3680 1873 c-8 -3 -18 -11 -22 -17 -11 -16 -10 -214 2 -236 9 -16 25
-18 144 -19 111 -2 136 1 150 14 19 19 22 85 4 85 -7 0 -23 3 -35 6 -20 6 -23
3 -23 -25 l0 -31 -92 0 -93 0 2 80 c1 44 2 85 2 90 1 6 38 10 91 10 89 0 90 0
90 -25 0 -23 3 -25 32 -20 41 8 42 8 34 48 -5 24 -13 37 -29 41 -28 7 -237 6
-257 -1z"/>
<path d="M4126 1865 c-13 -13 -16 -38 -16 -125 0 -147 -8 -141 186 -139 139 1
155 3 164 19 13 24 13 220 0 240 -7 12 -40 16 -163 18 -132 3 -157 1 -171 -13z
m275 -47 c1 -23 1 -143 0 -155 -1 -10 -30 -13 -111 -13 -98 0 -110 2 -111 18
-1 21 -1 132 0 150 1 9 30 12 111 12 81 0 110 -3 111 -12z"/>
<path d="M4618 1873 c-4 -7 -3 -223 1 -262 1 -18 256 -11 286 8 56 36 82 129
52 187 -28 55 -77 72 -214 74 -66 0 -123 -3 -125 -7z m263 -72 c19 -23 25 -74
13 -106 -11 -27 -56 -42 -135 -44 l-75 -2 -1 91 -1 92 90 -4 c80 -3 92 -6 109
-27z"/>
<path d="M5098 1868 c-4 -11 -3 -237 1 -260 0 -5 69 -8 151 -8 l150 0 0 25 c0
24 0 24 -117 27 l-118 3 -1 33 -1 32 68 0 c67 0 69 1 69 25 0 23 -3 24 -67 27
-65 3 -67 4 -68 31 l-2 27 117 0 c115 0 117 0 115 23 -2 22 -4 22 -147 25
-111 2 -147 -1 -150 -10z"/>
<path d="M130 1540 l0 -310 223 0 c122 0 238 5 257 10 48 13 72 56 75 134 2
87 -9 127 -44 157 l-31 26 26 14 c14 7 30 24 35 37 12 32 11 143 -2 180 -20
58 -32 61 -298 62 l-241 1 0 -311z m435 189 c13 -20 9 -101 -6 -110 -8 -5 -82
-9 -164 -9 l-150 0 1 63 c1 34 2 63 3 65 4 8 311 0 316 -9z m-6 -238 c21 -13
24 -117 4 -136 -20 -20 -312 -22 -314 -2 -1 14 -1 128 0 140 1 10 293 9 310
-2z"/>
<path d="M960 1832 c-25 -12 -37 -26 -41 -47 -12 -55 -10 -460 2 -495 20 -55
49 -61 311 -60 136 1 240 6 253 12 46 21 50 45 50 302 0 215 -2 244 -18 267
-24 35 -50 39 -307 39 -185 0 -220 -2 -250 -18z m460 -287 l0 -195 -195 0
-195 0 0 195 0 195 195 0 195 0 0 -195z"/>
<path d="M1790 1540 l0 -310 60 0 60 0 0 310 0 310 -60 0 -60 0 0 -310z"/>
<path d="M2235 1841 c-50 -21 -59 -46 -61 -157 -4 -198 4 -204 264 -204 l181
0 -1 -65 -1 -65 -178 0 -179 0 0 31 c0 29 -2 31 -27 24 -16 -4 -36 -8 -46 -10
-9 -2 -21 -6 -26 -9 -12 -8 -5 -69 11 -103 23 -49 45 -53 276 -52 204 0 214 1
237 22 14 12 28 40 33 62 12 57 6 199 -10 232 -23 47 -47 53 -245 53 l-183 0
0 70 0 70 165 0 c178 0 171 2 166 -52 -2 -18 13 -18 59 0 14 5 30 11 35 13 13
5 14 56 3 89 -17 50 -37 55 -253 57 -110 1 -209 -1 -220 -6z"/>
<path d="M2970 1540 l0 -310 264 0 263 0 1 60 0 60 -204 0 -204 0 0 75 0 74
117 3 117 3 1 53 1 52 -118 0 -118 0 0 65 0 65 199 0 200 0 3 28 c2 15 1 39
-1 55 l-3 27 -259 0 -259 0 0 -310z"/>
<path d="M3666 1505 c-13 -13 -16 -37 -16 -123 0 -59 5 -114 10 -122 7 -12 37
-16 142 -18 73 -1 139 1 146 6 20 13 29 92 11 93 -8 0 -24 2 -36 5 -20 3 -23
0 -23 -26 l0 -30 -90 0 c-73 0 -90 3 -91 15 0 8 0 35 0 60 0 25 0 59 0 75 l1
30 90 0 c89 0 90 0 90 -25 0 -20 4 -24 23 -21 12 3 28 5 35 5 6 1 12 13 12 29
0 54 -8 57 -153 60 -114 3 -137 1 -151 -13z"/>
<path d="M4160 1428 c-30 -51 -67 -114 -83 -140 l-27 -48 33 0 c26 0 36 6 50
30 18 30 19 30 110 30 91 0 92 0 112 -30 16 -24 27 -30 57 -30 l37 0 -82 138
c-79 130 -85 137 -118 140 -34 3 -35 1 -89 -90z m114 -76 c-19 -2 -47 -2 -63
0 l-29 3 31 53 30 54 33 -54 33 -53 -35 -3z"/>
<path d="M4544 1380 l0 -140 28 0 28 0 0 96 0 97 61 -79 c33 -44 64 -80 69
-82 4 -2 34 31 66 72 33 41 62 75 65 76 3 0 5 -39 5 -87 l-1 -88 31 -3 31 -3
0 140 -1 141 -27 0 c-22 0 -37 -12 -76 -62 -26 -35 -57 -73 -68 -85 l-20 -22
-65 82 c-53 67 -71 83 -96 85 l-30 3 0 -141z"/>
<path d="M5068 1508 c-2 -7 -4 -69 -3 -138 l0 -125 35 0 35 0 -1 53 0 52 108
0 c134 0 147 8 142 91 -2 37 -8 58 -20 66 -25 18 -290 18 -296 1z m243 -48 c1
-5 2 -17 2 -25 0 -8 -1 -19 -2 -25 0 -6 -38 -10 -90 -10 l-89 0 0 35 0 35 89
0 c52 0 90 -4 90 -10z"/>
</g>
</svg>
