<?xml version="1.0" standalone="no"?>
<!DOCTYPE svg PUBLIC "-//W3C//DTD SVG 20010904//EN"
 "http://www.w3.org/TR/2001/REC-SVG-20010904/DTD/svg10.dtd">
<svg version="1.0" xmlns="http://www.w3.org/2000/svg"
 width="250.000000pt" height="250.000000pt" viewBox="0 0 250.000000 250.000000"
 preserveAspectRatio="xMidYMid meet">
<metadata>
Created by potrace 1.14, written by Peter Selinger 2001-2017
</metadata>
<g transform="translate(0.000000,250.000000) scale(0.100000,-0.100000)"
fill="#000000" stroke="none">
<path d="M0 1250 l0 -1250 1250 0 1250 0 0 1250 0 1250 -1250 0 -1250 0 0
-1250z m855 598 c138 -166 252 -305 253 -310 13 -33 -594 74 -631 111 -16 16
-10 118 12 228 25 118 87 275 110 272 3 0 119 -136 256 -301z m1103 240 c40
-85 59 -146 77 -252 21 -121 20 -183 -2 -195 -55 -28 -383 -90 -562 -106 l-73
-6 72 88 c223 271 446 533 452 533 4 0 20 -28 36 -62z m-1689 -699 c-26 -130
-30 -275 -10 -333 l13 -39 31 57 c28 53 100 136 117 136 4 0 10 -48 13 -107 7
-119 25 -202 59 -266 l22 -42 8 63 c4 35 12 79 18 97 13 39 66 115 80 115 5 0
17 -26 25 -57 39 -140 69 -232 92 -278 l25 -49 40 79 c37 75 115 170 146 177
9 2 24 -26 43 -82 31 -92 89 -186 120 -195 15 -5 37 8 84 50 l65 57 67 -61 67
-61 34 33 c37 36 95 147 113 220 6 26 14 47 18 47 4 0 24 -14 45 -32 46 -37
106 -127 125 -186 8 -23 17 -42 21 -42 15 0 70 140 101 255 18 66 34 122 36
124 6 9 55 -45 74 -81 10 -20 25 -71 32 -115 l14 -78 22 50 c35 78 51 162 51
268 0 68 4 97 12 97 21 0 104 -96 124 -143 10 -26 22 -47 25 -47 3 0 11 17 17
39 19 61 14 205 -12 334 -12 64 -20 117 -16 117 14 0 98 -98 118 -137 73 -143
66 -335 -22 -563 -34 -86 -136 -283 -154 -294 -4 -2 -5 33 -4 77 2 45 -2 107
-9 137 l-12 55 -17 -55 c-20 -67 -40 -106 -93 -184 l-40 -59 -49 96 c-26 53
-52 97 -56 96 -4 0 -34 -43 -67 -95 -33 -52 -70 -107 -82 -122 l-21 -27 -25
24 c-14 12 -38 54 -54 92 -15 38 -30 69 -33 69 -13 0 -84 -125 -97 -170 -8
-28 -20 -50 -28 -50 -19 0 -103 99 -117 138 -17 46 -28 40 -28 -16 0 -53 -31
-108 -86 -151 l-29 -23 -5 84 c-4 57 -11 92 -24 110 -23 35 -31 35 -44 1 -16
-43 -101 -145 -118 -141 -9 2 -23 26 -33 55 -10 29 -35 78 -56 110 l-39 58
-34 -75 c-35 -78 -57 -110 -76 -110 -6 0 -46 54 -90 120 -43 66 -82 120 -85
120 -4 0 -28 -44 -55 -97 l-48 -97 -54 84 c-30 46 -63 110 -72 142 -9 32 -20
58 -23 58 -14 0 -31 -134 -25 -198 l6 -67 -32 50 c-53 84 -135 265 -164 360
-38 130 -45 294 -14 385 26 78 71 152 113 185 17 13 33 22 35 21 2 -2 -7 -55
-19 -117z"/>
</g>
</svg>
