<svg xmlns="http://www.w3.org/2000/svg" viewBox="0 0 186 77" fill="none">
  <path d="M100.611 32.9048L108.433 60.6221L139.744 52.668L153.409 0.368164H132.016L123.016 39.6479L111.426 0.368164H90.3207L79.7757 39.4038L70.2237 0.368164H48.3867L66.8067 71.2002L91.9717 64.8071L100.611 32.9048Z" fill="white"></path>
  <path d="M140.625 75.3667H67.0107L138.851 57.124L136.286 66.9116L140.625 75.3667Z" fill="#02CB35"></path>
  <path d="M185.349 19.2583V0.358398H158.136L153.108 19.2583H158.592L158.571 56.4673H153.245V75.3677H185.345V56.4673H180.011L180.032 19.2583H185.349Z" fill="white"></path>
  <path d="M51.687 55.2446C47.5596 56.2125 43.3677 56.8809 39.144 57.2446C28.973 57.2446 21.595 48.3196 21.601 37.9956C21.606 27.9416 25.394 23.1959 30.036 20.7319C32.208 19.5779 33.566 19.3479 36.612 19.1699C42.338 18.8359 48.359 19.1758 48.359 19.1758L43.445 0.310554C41.5184 0.105654 39.5824 0.00229807 37.645 7.50697e-06C26.756 -0.00599249 17.385 3.58477 10.545 10.3848C3.65299 17.2368 0.00600801 26.699 8.00965e-06 37.75C-0.012992 60.177 15.8 76.4626 37.6 76.4756C45.573 76.4756 49.065 75.3166 58.967 73.0186L62.285 72.2256L51.687 55.2446Z" fill="white"></path>
</svg>