<svg width="279" height="60" viewBox="0 0 279 60" fill="none" xmlns="http://www.w3.org/2000/svg">
<path d="M7.51266 57.2342L8.72631 57.8954C8.00457 59.1222 6.60545 60.0002 4.67006 60.0002C1.80529 60.0002 0.00195312 58.3037 0.00195312 55.5377C0.00195312 52.7717 1.80529 51.0752 4.72449 51.0752C6.60444 51.0752 8.00457 51.9653 8.71522 53.1678L7.49048 53.8412C6.92196 52.807 5.94923 52.3493 4.70231 52.3493C2.68024 52.3493 1.33555 53.4319 1.33555 55.5367C1.33555 57.6414 2.68024 58.724 4.70231 58.724C5.94923 58.724 6.93305 58.2795 7.51266 57.2321V57.2342Z" fill="#F06023"/>
<path d="M17.7803 59.7481L15.4074 56.6928H12.1828V59.7481H10.8704V51.3281H16.0737C17.8559 51.3281 19.1673 52.2666 19.1673 54.0104C19.1673 55.466 18.249 56.3561 16.9154 56.6202L19.3972 59.7471H17.7793L17.7803 59.7481ZM15.987 55.4539C17.0807 55.4539 17.8236 55.0689 17.8236 54.0226C17.8236 52.9762 17.0807 52.5912 15.987 52.5912H12.1717V55.4539H15.987Z" fill="#F06023"/>
<path d="M29.2404 58.485V59.7481H21.6208V51.3281H29.1316V52.5912H22.9212V54.84H28.1467V56.1031H22.9212V58.485H29.2404Z" fill="#F06023"/>
<path d="M37.8025 57.7149H32.8945L31.9218 59.7481H30.5005L34.6434 51.3281H36.0869L40.2198 59.7481H38.7874L37.8035 57.7149H37.8025ZM37.2229 56.4881L35.3541 52.5912L33.4842 56.4881H37.2229Z" fill="#F06023"/>
<path d="M48.1688 52.5912H44.6811V59.7481H43.3686V52.5912H39.9031V51.3281H48.1678V52.5912H48.1688Z" fill="#F06023"/>
<path d="M50.1497 59.7481V51.3281H51.4621V59.7481H50.1497Z" fill="#F06023"/>
<path d="M62.7782 51.3281V59.7481H61.619L55.6384 53.1083V59.7481H54.3704V51.3281H55.7695L61.498 57.7149V51.3281H62.7772H62.7782Z" fill="#F06023"/>
<path d="M74.2925 57.8591C73.5929 59.098 72.0728 60.0002 69.9742 60.0002C66.9572 60.0002 65.1528 58.3158 65.1528 55.5377C65.1528 52.7596 66.9562 51.0752 69.952 51.0752C71.8319 51.0752 73.1222 51.8453 73.8883 52.7475L72.8168 53.5892C72.1394 52.7475 71.2422 52.3382 69.9631 52.3382C67.8089 52.3382 66.4864 53.4208 66.4864 55.5377C66.4864 57.6545 67.8311 58.7371 70.0286 58.7371C71.3733 58.7371 72.467 58.352 73.0244 57.3904V56.4278H69.832V55.1889H74.2925V57.8591Z" fill="#F06023"/>
<path d="M86.419 57.7149H81.511L80.5382 59.7481H79.1169L83.2599 51.3281H84.7034L88.8362 59.7481H87.4038L86.42 57.7149H86.419ZM85.8394 56.4881L83.9705 52.5912L82.1007 56.4881H85.8394Z" fill="#F06023"/>
<path d="M99.1149 57.4387C99.1149 58.9537 97.989 59.7481 96.1846 59.7481H90.697V51.3281H95.8681C97.5515 51.3281 98.6775 52.0862 98.6775 53.4691C98.6775 54.4318 98.1412 55.2977 97.0163 55.3814C98.2077 55.466 99.1149 56.0668 99.1149 57.4377V57.4387ZM91.9863 54.8763H95.6595C96.6876 54.8763 97.3761 54.6233 97.3761 53.698C97.3761 52.7726 96.6876 52.5317 95.6595 52.5317H91.9863V54.8773V54.8763ZM97.7702 57.2936C97.7702 56.343 97.0808 56.0426 95.9336 56.0426H91.9863V58.5445H95.9336C97.0818 58.5445 97.7702 58.2441 97.7702 57.2936Z" fill="#F06023"/>
<path d="M109.645 51.3281V55.7785C109.645 58.2683 108.19 60.0001 105.479 60.0001C102.769 60.0001 101.325 58.2683 101.325 55.7785V51.3281H102.637V55.6827C102.637 57.5708 103.654 58.7138 105.479 58.7138C107.305 58.7138 108.332 57.5708 108.332 55.6827V51.3281H109.645Z" fill="#F06023"/>
<path d="M120.82 51.3281V59.7481H119.661L113.681 53.1083V59.7481H112.413V51.3281H113.812L119.54 57.7149V51.3281H120.819H120.82Z" fill="#F06023"/>
<path d="M132.269 55.5376C132.269 58.1353 130.455 59.7471 127.612 59.7471H123.731V51.3271H127.612C130.455 51.3271 132.269 52.939 132.269 55.5366V55.5376ZM130.925 55.5376C130.925 53.5891 129.526 52.5912 127.514 52.5912H125.043V58.4851H127.514C129.526 58.4851 130.925 57.4861 130.925 55.5386V55.5376Z" fill="#F06023"/>
<path d="M140.471 57.7149H135.563L134.59 59.7481H133.169L137.312 51.3281H138.755L142.888 59.7481H141.456L140.472 57.7149H140.471ZM139.891 56.4881L138.022 52.5912L136.152 56.4881H139.891Z" fill="#F06023"/>
<path d="M153.156 51.3281V59.7481H151.996L146.016 53.1083V59.7481H144.748V51.3281H146.147L151.875 57.7149V51.3281H153.155H153.156Z" fill="#F06023"/>
<path d="M163.041 57.2342L164.255 57.8954C163.533 59.1222 162.134 60.0002 160.198 60.0002C157.334 60.0002 155.53 58.3037 155.53 55.5377C155.53 52.7717 157.334 51.0752 160.253 51.0752C162.133 51.0752 163.533 51.9653 164.244 53.1678L163.019 53.8412C162.45 52.807 161.478 52.3493 160.231 52.3493C158.209 52.3493 156.864 53.4319 156.864 55.5367C156.864 57.6414 158.209 58.724 160.231 58.724C161.478 58.724 162.461 58.2795 163.041 57.2321V57.2342Z" fill="#F06023"/>
<path d="M174.019 58.485V59.7481H166.4V51.3281H173.911V52.5912H167.7V54.84H172.926V56.1031H167.7V58.485H174.019Z" fill="#F06023"/>
<path d="M9.43428 40.4626H0.523438V13.0376H9.43428V40.4626Z" fill="#211E1E"/>
<path d="M12.4944 40.4623V13.0372H21.3609V17.3939C23.4767 13.9787 27.1661 12.0474 31.6215 12.0474C38.8681 12.0474 42.7832 17.1459 42.7832 24.324V40.4623H33.9167V24.9681C33.9167 21.4037 32.0711 19.3252 28.6952 19.3252C25.77 19.3252 23.2499 20.8594 21.3599 24.2262V40.4633H12.4934L12.4944 40.4623Z" fill="#211E1E"/>
<path d="M77.2535 38.8287C75.0036 40.512 71.4927 41.5019 68.4767 41.5019C62.8067 41.5019 58.5317 38.0868 58.5317 31.453V19.9183H54.1206V13.0376H58.5317V6.65186H67.3982V13.0376H76.9844V19.9183H67.3982V29.819C67.3982 32.2937 69.0634 33.7301 71.4484 33.7301C72.9342 33.7301 74.3283 33.1858 75.7687 32.4429L77.2545 38.8287H77.2535Z" fill="#211E1E"/>
<path d="M141.604 24.324V40.4623H132.784V24.8683C132.784 21.4531 131.163 19.3242 127.878 19.3242C125.043 19.3242 122.838 21.0076 121.217 24.2252V35.3637L121.262 40.4623H112.396V24.8683C112.396 21.4531 110.776 19.3242 107.491 19.3242C104.656 19.3242 102.496 20.9582 100.875 24.1264V40.4623H92.0088V13.0372H100.875V17.4927C102.901 13.9777 106.322 12.0474 110.597 12.0474C115.818 12.0474 119.058 14.8194 120.453 19.0269C122.118 14.9676 125.808 12.0474 130.984 12.0474C138.185 12.0474 141.605 17.2941 141.605 24.324H141.604Z" fill="#211E1E"/>
<path d="M161.901 34.6704C165.862 34.6704 168.248 33.6312 170.723 31.5517L175.222 36.75C171.667 40.2155 167.077 41.6016 161.405 41.6016C150.829 41.6016 144.663 35.9577 144.663 26.7505C144.663 17.5433 150.74 11.8994 160.731 11.8994C169.732 11.8994 176.122 16.8498 176.122 26.5519C176.122 27.6406 176.078 28.2847 175.898 28.829H153.125C153.845 32.9871 156.86 34.6704 161.901 34.6704ZM153.35 23.5813L167.932 23.4825C166.988 20.2649 164.602 18.7297 160.822 18.7297C157.042 18.7297 154.341 20.2639 153.35 23.5813Z" fill="#211E1E"/>
<path d="M4.97879 9.98539C7.72783 9.98539 9.95636 7.75008 9.95636 4.99269C9.95636 2.2353 7.72783 0 4.97879 0C2.22976 0 0.0012207 2.2353 0.0012207 4.99269C0.0012207 7.75008 2.22976 9.98539 4.97879 9.98539Z" fill="#FFD600"/>
<path d="M210.587 38.8287C208.337 40.512 204.826 41.5019 201.81 41.5019C196.14 41.5019 191.865 38.0868 191.865 31.453V19.9183H187.454V13.0376H191.865V6.65186H200.731V13.0376H210.317V19.9183H200.731V29.819C200.731 32.2937 202.396 33.7301 204.781 33.7301C206.267 33.7301 207.661 33.1858 209.102 32.4429L210.588 38.8287H210.587Z" fill="#211E1E"/>
<path d="M230.634 34.6704C234.593 34.6704 236.979 33.6312 239.454 31.5517L243.955 36.75C240.399 40.2155 235.809 41.6016 230.138 41.6016C219.562 41.6016 213.397 35.9577 213.397 26.7505C213.397 17.5433 219.472 11.8994 229.463 11.8994C238.465 11.8994 244.856 16.8498 244.856 26.5519C244.856 27.6406 244.811 28.2847 244.631 28.829H221.858C222.578 32.9871 225.594 34.6704 230.635 34.6704H230.634ZM222.083 23.5813L236.665 23.4825C235.72 20.2649 233.334 18.7297 229.554 18.7297C225.774 18.7297 223.073 20.2639 222.083 23.5813Z" fill="#211E1E"/>
<path d="M264.072 41.6006C254.126 41.6006 247.915 35.8579 247.915 26.7495C247.915 17.6411 254.125 11.8984 264.072 11.8984C271.588 11.8984 276.224 15.5122 278.249 19.769L270.644 23.1358C269.338 20.3637 266.953 19.3739 264.163 19.3739C259.617 19.3739 256.423 21.8989 256.423 26.7495C256.423 31.6001 259.618 34.1251 264.163 34.1251C266.908 34.1251 269.428 33.0859 270.824 30.214L278.43 33.6292C276.36 37.9858 271.634 41.5996 264.072 41.5996V41.6006Z" fill="#211E1E"/>
<path d="M88.9636 40.4626H80.0527V13.0376H88.9636V40.4626Z" fill="#211E1E"/>
<path d="M84.5078 9.98539C87.2569 9.98539 89.4854 7.75008 89.4854 4.99269C89.4854 2.2353 87.2569 0 84.5078 0C81.7588 0 79.5303 2.2353 79.5303 4.99269C79.5303 7.75008 81.7588 9.98539 84.5078 9.98539Z" fill="#F06023"/>
</svg>
