<svg xmlns="http://www.w3.org/2000/svg" viewBox="0 0 136.13 89.13"><defs><style>.cls-1{fill:none;stroke:#fff;stroke-width:2px;}.cls-2{fill:#bad1dd;}.cls-3,.cls-7{fill:#97aab7;}.cls-4{fill:#5bd6d0;}.cls-5{fill:#2a827f;}.cls-6{fill:#269b95;}.cls-7{font-size:29.8px;}.cls-7,.cls-8{font-family:BankGothicBT-Medium, BankGothic Md BT;font-weight:500;}.cls-8{font-size:13.6px;fill:#4fa6a4;}.cls-9{letter-spacing:-0.02em;}.cls-10{letter-spacing:0em;}</style></defs><title>invert</title><g id="Layer_2" data-name="Layer 2"><g id="Colored"><g id="colored-2" data-name="colored"><polygon class="cls-1" points="94.14 32.22 66.45 5.68 57.3 14.64 44.02 1.61 7.98 62.83 50.23 62.83 94.14 32.22"/><polygon class="cls-1" points="128.95 62.83 50.23 62.83 94.14 32.22 128.95 62.83"/><line class="cls-1" x1="57.3" y1="14.64" x2="74.58" y2="32.63"/><rect class="cls-2" x="35.69" y="35.76" width="2.09" height="1.42"/><polygon class="cls-2" points="36.89 38.31 36.57 38.31 36.57 32.98 36.73 32.55 36.89 32.98 36.89 38.31"/><rect class="cls-2" x="33.48" y="37" width="6.37" height="26.71"/><path class="cls-3" d="M23.08,45.65V63.83l14.25,0L37.3,43,25.58,43A2.57,2.57,0,0,0,23.08,45.65Z"/><path class="cls-4" d="M68.69,42l-.34,21.85H50.92l.21-27.21,5.13,5.17Z"/><path class="cls-5" d="M44.13,44.29H43c-.25-.72.55-1.62.6-1.68s.51-1.05.51-1.05h0C44.12,42.47,44.13,43.38,44.13,44.29Z"/><path class="cls-6" d="M44.13,44.29h1.09c.25-.72-.5-1.62-.56-1.68s-.5-1.05-.5-1.05h0Z"/><path class="cls-5" d="M44.13,63.83H34.58a1.28,1.28,0,0,0,.29-.18c.43-.37.36-.89.69-2a1.93,1.93,0,0,1,.39-.88,2.82,2.82,0,0,1,.63-.51,4.14,4.14,0,0,1,.44-.28q-.06-3.78-.11-7.56L39,52.25c0-2.36,0-1.72,0-4.08,0-.08,0-.21.1-.36.16-.43.66-1.49.89-2a3.31,3.31,0,0,1,1.41-1.33A8.48,8.48,0,0,1,42.58,44a6.57,6.57,0,0,1,.78-.28,5.36,5.36,0,0,1,.77-.14Z"/><path class="cls-6" d="M44.13,63.83h9.56a1.55,1.55,0,0,1-.3-.18c-.43-.37-.36-.89-.69-2a2.08,2.08,0,0,0-.38-.88,3.12,3.12,0,0,0-.64-.51,4.14,4.14,0,0,0-.44-.28l.12-7.56-2.09-.12c0-2.36,0-1.72,0-4.08,0-.08,0-.21-.1-.36-.16-.43-.66-1.49-.89-2a3.31,3.31,0,0,0-1.41-1.33A8.27,8.27,0,0,0,45.69,44a6.59,6.59,0,0,0-.79-.28,5.36,5.36,0,0,0-.77-.14Z"/><path class="cls-6" d="M44.13,63.83H60.76l-1.22-1.61c0-1.52-.14-5.76-1.8-5.76H44.13Z"/><path class="cls-5" d="M44.14,63.83H27.51l1.21-1.61c0-1.52.15-5.76,1.81-5.76H44.14Z"/><text class="cls-7" transform="translate(0 82.1) scale(0.83 1)">BOISE</text><text class="cls-8" transform="translate(89.48 72.9) scale(1.05 1)">CODE<tspan class="cls-9"><tspan x="0" y="9.07">C</tspan><tspan class="cls-10" x="10.65" y="9.07">AMP</tspan></tspan></text></g></g></g></svg>